<svg width="43" height="39" fill="none" xmlns="http://www.w3.org/2000/svg" viewBox="0 0 533 517" aria-labelledby="logoTitle logoDesc"><title id="logoTitle">Logo de Vincent Riva</title><desc id="logoDesc">Ce logo est composé de plusieurs formes géométriques rectangulaires blanches sur fond noir. Ces formes sont très inspirés de celles du jeu vidéo "Journey", développé thatgamecompany.</desc><path d="M158 160c0-5.523 4.477-10 10-10h55c5.523 0 10 4.477 10 10v55c0 5.523-4.477 10-10 10h-55c-5.523 0-10-4.477-10-10v-55zM18 0C12.477 0 8 4.477 8 10v205c0 5.523 4.477 10 10 10h55c5.523 0 10-4.477 10-10V75h140c5.523 0 10-4.477 10-10V10c0-5.523-4.477-10-10-10H18zM223 284h-55c-5.523 0-10 4.477-10 10v140H83v-65c0-5.523-4.477-10-10-10H18c-5.523 0-10 4.477-10 10v130c0 5.523 4.477 10 10 10h205c5.523 0 10-4.477 10-10V294c0-5.523-4.477-10-10-10zM373 0h-55c-5.523 0-10 4.477-10 10v205c0 5.523 4.477 10 10 10h205c5.523 0 10-4.477 10-10v-55c0-5.523-4.477-10-10-10h-65V85c0-5.523-4.477-10-10-10h-65V10c0-5.523-4.477-10-10-10zM373 284h-55c-5.523 0-10 4.477-10 10v205c0 5.523 4.477 10 10 10h55c5.523 0 10-4.477 10-10V294c0-5.523-4.477-10-10-10zM523 284h-55c-5.523 0-10 4.477-10 10v205c0 5.523 4.477 10 10 10h55c5.523 0 10-4.477 10-10V294c0-5.523-4.477-10-10-10z" fill="red"></path><path d="M150 168c0-5.523 4.477-10 10-10h55c5.523 0 10 4.477 10 10v55c0 5.523-4.477 10-10 10h-55c-5.523 0-10-4.477-10-10v-55zM10 8C4.477 8 0 12.477 0 18v205c0 5.523 4.477 10 10 10h55c5.523 0 10-4.477 10-10V83h140c5.523 0 10-4.477 10-10V18c0-5.523-4.477-10-10-10H10zM215 292h-55c-5.523 0-10 4.477-10 10v140H75v-65c0-5.523-4.477-10-10-10H10c-5.523 0-10 4.477-10 10v130c0 5.523 4.477 10 10 10h205c5.523 0 10-4.477 10-10V302c0-5.523-4.477-10-10-10zM365 8h-55c-5.523 0-10 4.477-10 10v205c0 5.523 4.477 10 10 10h205c5.523 0 10-4.477 10-10v-55c0-5.523-4.477-10-10-10h-65V93c0-5.523-4.477-10-10-10h-65V18c0-5.523-4.477-10-10-10zM365 292h-55c-5.523 0-10 4.477-10 10v205c0 5.523 4.477 10 10 10h55c5.523 0 10-4.477 10-10V302c0-5.523-4.477-10-10-10zM515 292h-55c-5.523 0-10 4.477-10 10v205c0 5.523 4.477 10 10 10h55c5.523 0 10-4.477 10-10V302c0-5.523-4.477-10-10-10z" fill="#30F2F2"></path><path d="M154 164c0-5.523 4.477-10 10-10h55c5.523 0 10 4.477 10 10v55c0 5.523-4.477 10-10 10h-55c-5.523 0-10-4.477-10-10v-55zM14 4C8.477 4 4 8.477 4 14v205c0 5.523 4.477 10 10 10h55c5.523 0 10-4.477 10-10V79h140c5.523 0 10-4.477 10-10V14c0-5.523-4.477-10-10-10H14zM219 288h-55c-5.523 0-10 4.477-10 10v140H79v-65c0-5.523-4.477-10-10-10H14c-5.523 0-10 4.477-10 10v130c0 5.523 4.477 10 10 10h205c5.523 0 10-4.477 10-10V298c0-5.523-4.477-10-10-10zM369 4h-55c-5.523 0-10 4.477-10 10v205c0 5.523 4.477 10 10 10h205c5.523 0 10-4.477 10-10v-55c0-5.523-4.477-10-10-10h-65V89c0-5.523-4.477-10-10-10h-65V14c0-5.523-4.477-10-10-10zM369 288h-55c-5.523 0-10 4.477-10 10v205c0 5.523 4.477 10 10 10h55c5.523 0 10-4.477 10-10V298c0-5.523-4.477-10-10-10zM519 288h-55c-5.523 0-10 4.477-10 10v205c0 5.523 4.477 10 10 10h55c5.523 0 10-4.477 10-10V298c0-5.523-4.477-10-10-10z" fill="#fff"></path></svg>